<?xml version="1.0" encoding="utf-8"?>
<!DOCTYPE svg PUBLIC "-//W3C//DTD SVG 1.1//EN" "http://www.w3.org/Graphics/SVG/1.1/DTD/svg11.dtd">
<svg version="1.1" xmlns="http://www.w3.org/2000/svg" xmlns:xlink="http://www.w3.org/1999/xlink" x="0px" y="0px"
	 viewBox="0 0 512 512" enable-background="new 0 0 512 512" xml:space="preserve">
<path id="location-10-icon" fill="#737373" d="M256,50c-93.061,0-168.5,75.44-168.5,168.5C87.5,313,169.43,375.333,256,462
	c86.57-86.667,168.5-149,168.5-243.5C424.5,125.44,349.061,50,256,50z M256,336.958c-68.275,0-123.624-55.349-123.624-123.624
	c0-68.276,55.349-123.624,123.624-123.624c68.276,0,123.625,55.348,123.625,123.624C379.625,281.609,324.276,336.958,256,336.958z
	 M249.856,291.676c-19.975,7.021-36.445-1.029-33.141-20.215c3.305-19.188,22.26-60.269,24.965-68.037
	c2.703-7.768-2.48-9.897-8.034-6.737c-3.204,1.851-7.964,5.554-12.052,9.155c-1.135-2.284-2.729-4.892-3.925-7.391
	c6.669-6.684,17.817-15.645,31.019-18.893c15.77-3.893,42.13,2.33,30.8,32.474c-8.09,21.486-13.812,36.312-17.415,47.353
	c-3.604,11.045,0.676,13.362,6.983,9.058c4.929-3.364,10.179-7.94,14.026-11.489c1.779,2.893,2.351,3.815,4.11,7.14
	C280.514,270.94,263.039,286.964,249.856,291.676z M291.247,158.771c-9.061,7.714-22.49,7.546-30.002-0.377
	c-7.514-7.917-6.259-20.588,2.8-28.303c9.06-7.712,22.493-7.544,30.004,0.374C301.56,138.385,300.308,151.057,291.247,158.771z"/>
</svg>
